<?xml version="1.0" encoding="UTF-8" standalone="no"?>
<!DOCTYPE svg PUBLIC "-//W3C//DTD SVG 1.1//EN"
 "http://www.w3.org/Graphics/SVG/1.1/DTD/svg11.dtd">
<!-- Generated by graphviz version 2.50.0 (0)
 -->
<!-- Title: Tree Pages: 1 -->
<svg width="968pt" height="671pt"
 viewBox="0.00 0.00 967.50 671.00" xmlns="http://www.w3.org/2000/svg" xmlns:xlink="http://www.w3.org/1999/xlink">
<g id="graph0" class="graph" transform="scale(1 1) rotate(0) translate(4 667)">
<title>Tree</title>
<polygon fill="white" stroke="transparent" points="-4,4 -4,-667 963.5,-667 963.5,4 -4,4"/>
<!-- 0 -->
<g id="node1" class="node">
<title>0</title>
<path fill="#f7fbfe" stroke="black" d="M527,-663C527,-663 381,-663 381,-663 375,-663 369,-657 369,-651 369,-651 369,-592 369,-592 369,-586 375,-580 381,-580 381,-580 527,-580 527,-580 533,-580 539,-586 539,-592 539,-592 539,-651 539,-651 539,-657 533,-663 527,-663"/>
<text text-anchor="middle" x="454" y="-647.8" font-family="Helvetica,sans-Serif" font-size="14.00">cp_asymptotmatic &lt;= 0.5</text>
<text text-anchor="middle" x="454" y="-632.8" font-family="Helvetica,sans-Serif" font-size="14.00">gini = 0.5</text>
<text text-anchor="middle" x="454" y="-617.8" font-family="Helvetica,sans-Serif" font-size="14.00">samples = 100.0%</text>
<text text-anchor="middle" x="454" y="-602.8" font-family="Helvetica,sans-Serif" font-size="14.00">value = [0.49, 0.51]</text>
<text text-anchor="middle" x="454" y="-587.8" font-family="Helvetica,sans-Serif" font-size="14.00">class = 1</text>
</g>
<!-- 1 -->
<g id="node2" class="node">
<title>1</title>
<path fill="#73baed" stroke="black" d="M411,-544C411,-544 349,-544 349,-544 343,-544 337,-538 337,-532 337,-532 337,-473 337,-473 337,-467 343,-461 349,-461 349,-461 411,-461 411,-461 417,-461 423,-467 423,-473 423,-473 423,-532 423,-532 423,-538 417,-544 411,-544"/>
<text text-anchor="middle" x="380" y="-528.8" font-family="Helvetica,sans-Serif" font-size="14.00">num &lt;= 0.5</text>
<text text-anchor="middle" x="380" y="-513.8" font-family="Helvetica,sans-Serif" font-size="14.00">0.35</text>
<text text-anchor="middle" x="380" y="-498.8" font-family="Helvetica,sans-Serif" font-size="14.00">52.0%</text>
<text text-anchor="middle" x="380" y="-483.8" font-family="Helvetica,sans-Serif" font-size="14.00">[0.23, 0.77]</text>
<text text-anchor="middle" x="380" y="-468.8" font-family="Helvetica,sans-Serif" font-size="14.00">1</text>
</g>
<!-- 0&#45;&gt;1 -->
<g id="edge1" class="edge">
<title>0&#45;&gt;1</title>
<path fill="none" stroke="black" d="M428.33,-579.91C422.76,-571.1 416.81,-561.7 411.06,-552.61"/>
<polygon fill="black" stroke="black" points="413.93,-550.6 405.63,-544.02 408.02,-554.34 413.93,-550.6"/>
<text text-anchor="middle" x="400.14" y="-564.71" font-family="Helvetica,sans-Serif" font-size="14.00">True</text>
</g>
<!-- 4 -->
<g id="node5" class="node">
<title>4</title>
<path fill="#eda877" stroke="black" d="M603,-544C603,-544 453,-544 453,-544 447,-544 441,-538 441,-532 441,-532 441,-473 441,-473 441,-467 447,-461 453,-461 453,-461 603,-461 603,-461 609,-461 615,-467 615,-473 615,-473 615,-532 615,-532 615,-538 609,-544 603,-544"/>
<text text-anchor="middle" x="528" y="-528.8" font-family="Helvetica,sans-Serif" font-size="14.00">slope_downsloping &lt;= 0.5</text>
<text text-anchor="middle" x="528" y="-513.8" font-family="Helvetica,sans-Serif" font-size="14.00">0.36</text>
<text text-anchor="middle" x="528" y="-498.8" font-family="Helvetica,sans-Serif" font-size="14.00">48.0%</text>
<text text-anchor="middle" x="528" y="-483.8" font-family="Helvetica,sans-Serif" font-size="14.00">[0.76, 0.24]</text>
<text text-anchor="middle" x="528" y="-468.8" font-family="Helvetica,sans-Serif" font-size="14.00">1</text>
</g>
<!-- 0&#45;&gt;4 -->
<g id="edge4" class="edge">
<title>0&#45;&gt;4</title>
<path fill="none" stroke="black" d="M479.67,-579.91C485.24,-571.1 491.19,-561.7 496.94,-552.61"/>
<polygon fill="black" stroke="black" points="499.98,-554.34 502.37,-544.02 494.07,-550.6 499.98,-554.34"/>
<text text-anchor="middle" x="507.86" y="-564.71" font-family="Helvetica,sans-Serif" font-size="14.00">False</text>
</g>
<!-- 2 -->
<g id="node3" class="node">
<title>2</title>
<path fill="#399de5" stroke="black" d="M324.5,-417.5C324.5,-417.5 279.5,-417.5 279.5,-417.5 273.5,-417.5 267.5,-411.5 267.5,-405.5 267.5,-405.5 267.5,-361.5 267.5,-361.5 267.5,-355.5 273.5,-349.5 279.5,-349.5 279.5,-349.5 324.5,-349.5 324.5,-349.5 330.5,-349.5 336.5,-355.5 336.5,-361.5 336.5,-361.5 336.5,-405.5 336.5,-405.5 336.5,-411.5 330.5,-417.5 324.5,-417.5"/>
<text text-anchor="middle" x="302" y="-402.3" font-family="Helvetica,sans-Serif" font-size="14.00">0.0</text>
<text text-anchor="middle" x="302" y="-387.3" font-family="Helvetica,sans-Serif" font-size="14.00">41.2%</text>
<text text-anchor="middle" x="302" y="-372.3" font-family="Helvetica,sans-Serif" font-size="14.00">[0.0, 1.0]</text>
<text text-anchor="middle" x="302" y="-357.3" font-family="Helvetica,sans-Serif" font-size="14.00">1</text>
</g>
<!-- 1&#45;&gt;2 -->
<g id="edge2" class="edge">
<title>1&#45;&gt;2</title>
<path fill="none" stroke="black" d="M352.94,-460.91C345.43,-449.65 337.28,-437.42 329.74,-426.11"/>
<polygon fill="black" stroke="black" points="332.57,-424.05 324.11,-417.67 326.75,-427.93 332.57,-424.05"/>
</g>
<!-- 3 -->
<g id="node4" class="node">
<title>3</title>
<path fill="#e58139" stroke="black" d="M411.5,-417.5C411.5,-417.5 366.5,-417.5 366.5,-417.5 360.5,-417.5 354.5,-411.5 354.5,-405.5 354.5,-405.5 354.5,-361.5 354.5,-361.5 354.5,-355.5 360.5,-349.5 366.5,-349.5 366.5,-349.5 411.5,-349.5 411.5,-349.5 417.5,-349.5 423.5,-355.5 423.5,-361.5 423.5,-361.5 423.5,-405.5 423.5,-405.5 423.5,-411.5 417.5,-417.5 411.5,-417.5"/>
<text text-anchor="middle" x="389" y="-402.3" font-family="Helvetica,sans-Serif" font-size="14.00">0.0</text>
<text text-anchor="middle" x="389" y="-387.3" font-family="Helvetica,sans-Serif" font-size="14.00">10.8%</text>
<text text-anchor="middle" x="389" y="-372.3" font-family="Helvetica,sans-Serif" font-size="14.00">[1.0, 0.0]</text>
<text text-anchor="middle" x="389" y="-357.3" font-family="Helvetica,sans-Serif" font-size="14.00">1</text>
</g>
<!-- 1&#45;&gt;3 -->
<g id="edge3" class="edge">
<title>1&#45;&gt;3</title>
<path fill="none" stroke="black" d="M383.12,-460.91C383.95,-450.2 384.84,-438.62 385.67,-427.78"/>
<polygon fill="black" stroke="black" points="389.17,-427.91 386.45,-417.67 382.19,-427.37 389.17,-427.91"/>
</g>
<!-- 5 -->
<g id="node6" class="node">
<title>5</title>
<path fill="#e88f50" stroke="black" d="M569,-425C569,-425 471,-425 471,-425 465,-425 459,-419 459,-413 459,-413 459,-354 459,-354 459,-348 465,-342 471,-342 471,-342 569,-342 569,-342 575,-342 581,-348 581,-354 581,-354 581,-413 581,-413 581,-419 575,-425 569,-425"/>
<text text-anchor="middle" x="520" y="-409.8" font-family="Helvetica,sans-Serif" font-size="14.00">trestbps &lt;= 121.0</text>
<text text-anchor="middle" x="520" y="-394.8" font-family="Helvetica,sans-Serif" font-size="14.00">0.18</text>
<text text-anchor="middle" x="520" y="-379.8" font-family="Helvetica,sans-Serif" font-size="14.00">30.4%</text>
<text text-anchor="middle" x="520" y="-364.8" font-family="Helvetica,sans-Serif" font-size="14.00">[0.9, 0.1]</text>
<text text-anchor="middle" x="520" y="-349.8" font-family="Helvetica,sans-Serif" font-size="14.00">1</text>
</g>
<!-- 4&#45;&gt;5 -->
<g id="edge5" class="edge">
<title>4&#45;&gt;5</title>
<path fill="none" stroke="black" d="M525.22,-460.91C524.65,-452.56 524.05,-443.67 523.45,-435.02"/>
<polygon fill="black" stroke="black" points="526.94,-434.76 522.77,-425.02 519.96,-435.24 526.94,-434.76"/>
</g>
<!-- 16 -->
<g id="node17" class="node">
<title>16</title>
<path fill="#ffffff" stroke="black" d="M712.5,-425C712.5,-425 637.5,-425 637.5,-425 631.5,-425 625.5,-419 625.5,-413 625.5,-413 625.5,-354 625.5,-354 625.5,-348 631.5,-342 637.5,-342 637.5,-342 712.5,-342 712.5,-342 718.5,-342 724.5,-348 724.5,-354 724.5,-354 724.5,-413 724.5,-413 724.5,-419 718.5,-425 712.5,-425"/>
<text text-anchor="middle" x="675" y="-409.8" font-family="Helvetica,sans-Serif" font-size="14.00">chol &lt;= 228.0</text>
<text text-anchor="middle" x="675" y="-394.8" font-family="Helvetica,sans-Serif" font-size="14.00">0.5</text>
<text text-anchor="middle" x="675" y="-379.8" font-family="Helvetica,sans-Serif" font-size="14.00">17.6%</text>
<text text-anchor="middle" x="675" y="-364.8" font-family="Helvetica,sans-Serif" font-size="14.00">[0.5, 0.5]</text>
<text text-anchor="middle" x="675" y="-349.8" font-family="Helvetica,sans-Serif" font-size="14.00">1</text>
</g>
<!-- 4&#45;&gt;16 -->
<g id="edge16" class="edge">
<title>4&#45;&gt;16</title>
<path fill="none" stroke="black" d="M579,-460.91C591.25,-451.16 604.41,-440.68 616.95,-430.7"/>
<polygon fill="black" stroke="black" points="619.44,-433.2 625.08,-424.23 615.08,-427.72 619.44,-433.2"/>
</g>
<!-- 6 -->
<g id="node7" class="node">
<title>6</title>
<path fill="#eeab7b" stroke="black" d="M395,-306C395,-306 301,-306 301,-306 295,-306 289,-300 289,-294 289,-294 289,-235 289,-235 289,-229 295,-223 301,-223 301,-223 395,-223 395,-223 401,-223 407,-229 407,-235 407,-235 407,-294 407,-294 407,-300 401,-306 395,-306"/>
<text text-anchor="middle" x="348" y="-290.8" font-family="Helvetica,sans-Serif" font-size="14.00">sex_male &lt;= 0.5</text>
<text text-anchor="middle" x="348" y="-275.8" font-family="Helvetica,sans-Serif" font-size="14.00">0.38</text>
<text text-anchor="middle" x="348" y="-260.8" font-family="Helvetica,sans-Serif" font-size="14.00">9.5%</text>
<text text-anchor="middle" x="348" y="-245.8" font-family="Helvetica,sans-Serif" font-size="14.00">[0.75, 0.25]</text>
<text text-anchor="middle" x="348" y="-230.8" font-family="Helvetica,sans-Serif" font-size="14.00">1</text>
</g>
<!-- 5&#45;&gt;6 -->
<g id="edge6" class="edge">
<title>5&#45;&gt;6</title>
<path fill="none" stroke="black" d="M460.33,-341.91C445.97,-332.14 430.53,-321.64 415.83,-311.64"/>
<polygon fill="black" stroke="black" points="417.52,-308.55 407.28,-305.82 413.58,-314.34 417.52,-308.55"/>
</g>
<!-- 13 -->
<g id="node14" class="node">
<title>13</title>
<path fill="#e68844" stroke="black" d="M551,-306C551,-306 489,-306 489,-306 483,-306 477,-300 477,-294 477,-294 477,-235 477,-235 477,-229 483,-223 489,-223 489,-223 551,-223 551,-223 557,-223 563,-229 563,-235 563,-235 563,-294 563,-294 563,-300 557,-306 551,-306"/>
<text text-anchor="middle" x="520" y="-290.8" font-family="Helvetica,sans-Serif" font-size="14.00">num &lt;= 0.5</text>
<text text-anchor="middle" x="520" y="-275.8" font-family="Helvetica,sans-Serif" font-size="14.00">0.1</text>
<text text-anchor="middle" x="520" y="-260.8" font-family="Helvetica,sans-Serif" font-size="14.00">20.9%</text>
<text text-anchor="middle" x="520" y="-245.8" font-family="Helvetica,sans-Serif" font-size="14.00">[0.95, 0.05]</text>
<text text-anchor="middle" x="520" y="-230.8" font-family="Helvetica,sans-Serif" font-size="14.00">1</text>
</g>
<!-- 5&#45;&gt;13 -->
<g id="edge13" class="edge">
<title>5&#45;&gt;13</title>
<path fill="none" stroke="black" d="M520,-341.91C520,-333.65 520,-324.86 520,-316.3"/>
<polygon fill="black" stroke="black" points="523.5,-316.02 520,-306.02 516.5,-316.02 523.5,-316.02"/>
</g>
<!-- 7 -->
<g id="node8" class="node">
<title>7</title>
<path fill="#9ccef2" stroke="black" d="M258,-187C258,-187 12,-187 12,-187 6,-187 0,-181 0,-175 0,-175 0,-116 0,-116 0,-110 6,-104 12,-104 12,-104 258,-104 258,-104 264,-104 270,-110 270,-116 270,-116 270,-175 270,-175 270,-181 264,-187 258,-187"/>
<text text-anchor="middle" x="135" y="-171.8" font-family="Helvetica,sans-Serif" font-size="14.00">restecg_left ventricular hypertrophy &lt;= 0.5</text>
<text text-anchor="middle" x="135" y="-156.8" font-family="Helvetica,sans-Serif" font-size="14.00">0.44</text>
<text text-anchor="middle" x="135" y="-141.8" font-family="Helvetica,sans-Serif" font-size="14.00">1.4%</text>
<text text-anchor="middle" x="135" y="-126.8" font-family="Helvetica,sans-Serif" font-size="14.00">[0.33, 0.67]</text>
<text text-anchor="middle" x="135" y="-111.8" font-family="Helvetica,sans-Serif" font-size="14.00">1</text>
</g>
<!-- 6&#45;&gt;7 -->
<g id="edge7" class="edge">
<title>6&#45;&gt;7</title>
<path fill="none" stroke="black" d="M288.95,-231.06C267.01,-219.01 241.69,-205.1 218,-192.09"/>
<polygon fill="black" stroke="black" points="219.46,-188.9 209.01,-187.15 216.09,-195.03 219.46,-188.9"/>
</g>
<!-- 10 -->
<g id="node11" class="node">
<title>10</title>
<path fill="#eb9c63" stroke="black" d="M395.5,-187C395.5,-187 300.5,-187 300.5,-187 294.5,-187 288.5,-181 288.5,-175 288.5,-175 288.5,-116 288.5,-116 288.5,-110 294.5,-104 300.5,-104 300.5,-104 395.5,-104 395.5,-104 401.5,-104 407.5,-110 407.5,-116 407.5,-116 407.5,-175 407.5,-175 407.5,-181 401.5,-187 395.5,-187"/>
<text text-anchor="middle" x="348" y="-171.8" font-family="Helvetica,sans-Serif" font-size="14.00">exang_no &lt;= 0.5</text>
<text text-anchor="middle" x="348" y="-156.8" font-family="Helvetica,sans-Serif" font-size="14.00">0.29</text>
<text text-anchor="middle" x="348" y="-141.8" font-family="Helvetica,sans-Serif" font-size="14.00">8.1%</text>
<text text-anchor="middle" x="348" y="-126.8" font-family="Helvetica,sans-Serif" font-size="14.00">[0.82, 0.18]</text>
<text text-anchor="middle" x="348" y="-111.8" font-family="Helvetica,sans-Serif" font-size="14.00">1</text>
</g>
<!-- 6&#45;&gt;10 -->
<g id="edge10" class="edge">
<title>6&#45;&gt;10</title>
<path fill="none" stroke="black" d="M348,-222.91C348,-214.65 348,-205.86 348,-197.3"/>
<polygon fill="black" stroke="black" points="351.5,-197.02 348,-187.02 344.5,-197.02 351.5,-197.02"/>
</g>
<!-- 8 -->
<g id="node9" class="node">
<title>8</title>
<path fill="#e58139" stroke="black" d="M114.5,-68C114.5,-68 69.5,-68 69.5,-68 63.5,-68 57.5,-62 57.5,-56 57.5,-56 57.5,-12 57.5,-12 57.5,-6 63.5,0 69.5,0 69.5,0 114.5,0 114.5,0 120.5,0 126.5,-6 126.5,-12 126.5,-12 126.5,-56 126.5,-56 126.5,-62 120.5,-68 114.5,-68"/>
<text text-anchor="middle" x="92" y="-52.8" font-family="Helvetica,sans-Serif" font-size="14.00">0.0</text>
<text text-anchor="middle" x="92" y="-37.8" font-family="Helvetica,sans-Serif" font-size="14.00">0.7%</text>
<text text-anchor="middle" x="92" y="-22.8" font-family="Helvetica,sans-Serif" font-size="14.00">[1.0, 0.0]</text>
<text text-anchor="middle" x="92" y="-7.8" font-family="Helvetica,sans-Serif" font-size="14.00">1</text>
</g>
<!-- 7&#45;&gt;8 -->
<g id="edge8" class="edge">
<title>7&#45;&gt;8</title>
<path fill="none" stroke="black" d="M118.99,-103.73C115.66,-95.24 112.14,-86.28 108.78,-77.73"/>
<polygon fill="black" stroke="black" points="111.99,-76.33 105.08,-68.3 105.47,-78.89 111.99,-76.33"/>
</g>
<!-- 9 -->
<g id="node10" class="node">
<title>9</title>
<path fill="#399de5" stroke="black" d="M201.5,-68C201.5,-68 156.5,-68 156.5,-68 150.5,-68 144.5,-62 144.5,-56 144.5,-56 144.5,-12 144.5,-12 144.5,-6 150.5,0 156.5,0 156.5,0 201.5,0 201.5,0 207.5,0 213.5,-6 213.5,-12 213.5,-12 213.5,-56 213.5,-56 213.5,-62 207.5,-68 201.5,-68"/>
<text text-anchor="middle" x="179" y="-52.8" font-family="Helvetica,sans-Serif" font-size="14.00">0.0</text>
<text text-anchor="middle" x="179" y="-37.8" font-family="Helvetica,sans-Serif" font-size="14.00">0.7%</text>
<text text-anchor="middle" x="179" y="-22.8" font-family="Helvetica,sans-Serif" font-size="14.00">[0.0, 1.0]</text>
<text text-anchor="middle" x="179" y="-7.8" font-family="Helvetica,sans-Serif" font-size="14.00">1</text>
</g>
<!-- 7&#45;&gt;9 -->
<g id="edge9" class="edge">
<title>7&#45;&gt;9</title>
<path fill="none" stroke="black" d="M151.38,-103.73C154.79,-95.24 158.39,-86.28 161.83,-77.73"/>
<polygon fill="black" stroke="black" points="165.14,-78.88 165.62,-68.3 158.64,-76.27 165.14,-78.88"/>
</g>
<!-- 11 -->
<g id="node12" class="node">
<title>11</title>
<path fill="#e78c49" stroke="black" d="M341,-68C341,-68 281,-68 281,-68 275,-68 269,-62 269,-56 269,-56 269,-12 269,-12 269,-6 275,0 281,0 281,0 341,0 341,0 347,0 353,-6 353,-12 353,-12 353,-56 353,-56 353,-62 347,-68 341,-68"/>
<text text-anchor="middle" x="311" y="-52.8" font-family="Helvetica,sans-Serif" font-size="14.00">0.14</text>
<text text-anchor="middle" x="311" y="-37.8" font-family="Helvetica,sans-Serif" font-size="14.00">6.1%</text>
<text text-anchor="middle" x="311" y="-22.8" font-family="Helvetica,sans-Serif" font-size="14.00">[0.92, 0.08]</text>
<text text-anchor="middle" x="311" y="-7.8" font-family="Helvetica,sans-Serif" font-size="14.00">1</text>
</g>
<!-- 10&#45;&gt;11 -->
<g id="edge11" class="edge">
<title>10&#45;&gt;11</title>
<path fill="none" stroke="black" d="M334.22,-103.73C331.39,-95.34 328.39,-86.47 325.53,-78.01"/>
<polygon fill="black" stroke="black" points="328.77,-76.65 322.25,-68.3 322.14,-78.89 328.77,-76.65"/>
</g>
<!-- 12 -->
<g id="node13" class="node">
<title>12</title>
<path fill="#ffffff" stroke="black" d="M428.5,-68C428.5,-68 383.5,-68 383.5,-68 377.5,-68 371.5,-62 371.5,-56 371.5,-56 371.5,-12 371.5,-12 371.5,-6 377.5,0 383.5,0 383.5,0 428.5,0 428.5,0 434.5,0 440.5,-6 440.5,-12 440.5,-12 440.5,-56 440.5,-56 440.5,-62 434.5,-68 428.5,-68"/>
<text text-anchor="middle" x="406" y="-52.8" font-family="Helvetica,sans-Serif" font-size="14.00">0.5</text>
<text text-anchor="middle" x="406" y="-37.8" font-family="Helvetica,sans-Serif" font-size="14.00">2.0%</text>
<text text-anchor="middle" x="406" y="-22.8" font-family="Helvetica,sans-Serif" font-size="14.00">[0.5, 0.5]</text>
<text text-anchor="middle" x="406" y="-7.8" font-family="Helvetica,sans-Serif" font-size="14.00">1</text>
</g>
<!-- 10&#45;&gt;12 -->
<g id="edge12" class="edge">
<title>10&#45;&gt;12</title>
<path fill="none" stroke="black" d="M369.6,-103.73C374.19,-95.06 379.04,-85.9 383.66,-77.18"/>
<polygon fill="black" stroke="black" points="386.77,-78.77 388.36,-68.3 380.59,-75.5 386.77,-78.77"/>
</g>
<!-- 14 -->
<g id="node15" class="node">
<title>14</title>
<path fill="#399de5" stroke="black" d="M482.5,-179.5C482.5,-179.5 437.5,-179.5 437.5,-179.5 431.5,-179.5 425.5,-173.5 425.5,-167.5 425.5,-167.5 425.5,-123.5 425.5,-123.5 425.5,-117.5 431.5,-111.5 437.5,-111.5 437.5,-111.5 482.5,-111.5 482.5,-111.5 488.5,-111.5 494.5,-117.5 494.5,-123.5 494.5,-123.5 494.5,-167.5 494.5,-167.5 494.5,-173.5 488.5,-179.5 482.5,-179.5"/>
<text text-anchor="middle" x="460" y="-164.3" font-family="Helvetica,sans-Serif" font-size="14.00">0.0</text>
<text text-anchor="middle" x="460" y="-149.3" font-family="Helvetica,sans-Serif" font-size="14.00">0.7%</text>
<text text-anchor="middle" x="460" y="-134.3" font-family="Helvetica,sans-Serif" font-size="14.00">[0.0, 1.0]</text>
<text text-anchor="middle" x="460" y="-119.3" font-family="Helvetica,sans-Serif" font-size="14.00">1</text>
</g>
<!-- 13&#45;&gt;14 -->
<g id="edge14" class="edge">
<title>13&#45;&gt;14</title>
<path fill="none" stroke="black" d="M499.18,-222.91C493.52,-211.87 487.38,-199.9 481.68,-188.77"/>
<polygon fill="black" stroke="black" points="484.69,-186.97 477.01,-179.67 478.46,-190.16 484.69,-186.97"/>
</g>
<!-- 15 -->
<g id="node16" class="node">
<title>15</title>
<path fill="#e58139" stroke="black" d="M569.5,-179.5C569.5,-179.5 524.5,-179.5 524.5,-179.5 518.5,-179.5 512.5,-173.5 512.5,-167.5 512.5,-167.5 512.5,-123.5 512.5,-123.5 512.5,-117.5 518.5,-111.5 524.5,-111.5 524.5,-111.5 569.5,-111.5 569.5,-111.5 575.5,-111.5 581.5,-117.5 581.5,-123.5 581.5,-123.5 581.5,-167.5 581.5,-167.5 581.5,-173.5 575.5,-179.5 569.5,-179.5"/>
<text text-anchor="middle" x="547" y="-164.3" font-family="Helvetica,sans-Serif" font-size="14.00">0.0</text>
<text text-anchor="middle" x="547" y="-149.3" font-family="Helvetica,sans-Serif" font-size="14.00">20.3%</text>
<text text-anchor="middle" x="547" y="-134.3" font-family="Helvetica,sans-Serif" font-size="14.00">[1.0, 0.0]</text>
<text text-anchor="middle" x="547" y="-119.3" font-family="Helvetica,sans-Serif" font-size="14.00">1</text>
</g>
<!-- 13&#45;&gt;15 -->
<g id="edge15" class="edge">
<title>13&#45;&gt;15</title>
<path fill="none" stroke="black" d="M529.37,-222.91C531.86,-212.09 534.57,-200.38 537.09,-189.44"/>
<polygon fill="black" stroke="black" points="540.51,-190.2 539.35,-179.67 533.69,-188.62 540.51,-190.2"/>
</g>
<!-- 17 -->
<g id="node18" class="node">
<title>17</title>
<path fill="#a3d1f3" stroke="black" d="M727.5,-306C727.5,-306 622.5,-306 622.5,-306 616.5,-306 610.5,-300 610.5,-294 610.5,-294 610.5,-235 610.5,-235 610.5,-229 616.5,-223 622.5,-223 622.5,-223 727.5,-223 727.5,-223 733.5,-223 739.5,-229 739.5,-235 739.5,-235 739.5,-294 739.5,-294 739.5,-300 733.5,-306 727.5,-306"/>
<text text-anchor="middle" x="675" y="-290.8" font-family="Helvetica,sans-Serif" font-size="14.00">sex_female &lt;= 0.5</text>
<text text-anchor="middle" x="675" y="-275.8" font-family="Helvetica,sans-Serif" font-size="14.00">0.45</text>
<text text-anchor="middle" x="675" y="-260.8" font-family="Helvetica,sans-Serif" font-size="14.00">7.4%</text>
<text text-anchor="middle" x="675" y="-245.8" font-family="Helvetica,sans-Serif" font-size="14.00">[0.35, 0.65]</text>
<text text-anchor="middle" x="675" y="-230.8" font-family="Helvetica,sans-Serif" font-size="14.00">1</text>
</g>
<!-- 16&#45;&gt;17 -->
<g id="edge17" class="edge">
<title>16&#45;&gt;17</title>
<path fill="none" stroke="black" d="M675,-341.91C675,-333.65 675,-324.86 675,-316.3"/>
<polygon fill="black" stroke="black" points="678.5,-316.02 675,-306.02 671.5,-316.02 678.5,-316.02"/>
</g>
<!-- 22 -->
<g id="node23" class="node">
<title>22</title>
<path fill="#f0b58b" stroke="black" d="M869,-306C869,-306 807,-306 807,-306 801,-306 795,-300 795,-294 795,-294 795,-235 795,-235 795,-229 801,-223 807,-223 807,-223 869,-223 869,-223 875,-223 881,-229 881,-235 881,-235 881,-294 881,-294 881,-300 875,-306 869,-306"/>
<text text-anchor="middle" x="838" y="-290.8" font-family="Helvetica,sans-Serif" font-size="14.00">num &lt;= 0.5</text>
<text text-anchor="middle" x="838" y="-275.8" font-family="Helvetica,sans-Serif" font-size="14.00">0.42</text>
<text text-anchor="middle" x="838" y="-260.8" font-family="Helvetica,sans-Serif" font-size="14.00">10.1%</text>
<text text-anchor="middle" x="838" y="-245.8" font-family="Helvetica,sans-Serif" font-size="14.00">[0.71, 0.29]</text>
<text text-anchor="middle" x="838" y="-230.8" font-family="Helvetica,sans-Serif" font-size="14.00">1</text>
</g>
<!-- 16&#45;&gt;22 -->
<g id="edge22" class="edge">
<title>16&#45;&gt;22</title>
<path fill="none" stroke="black" d="M724.79,-346.76C744.37,-332.71 766.84,-316.58 786.58,-302.41"/>
<polygon fill="black" stroke="black" points="788.77,-305.15 794.85,-296.47 784.69,-299.46 788.77,-305.15"/>
</g>
<!-- 18 -->
<g id="node19" class="node">
<title>18</title>
<path fill="#d7ebfa" stroke="black" d="M686.5,-187C686.5,-187 611.5,-187 611.5,-187 605.5,-187 599.5,-181 599.5,-175 599.5,-175 599.5,-116 599.5,-116 599.5,-110 605.5,-104 611.5,-104 611.5,-104 686.5,-104 686.5,-104 692.5,-104 698.5,-110 698.5,-116 698.5,-116 698.5,-175 698.5,-175 698.5,-181 692.5,-187 686.5,-187"/>
<text text-anchor="middle" x="649" y="-171.8" font-family="Helvetica,sans-Serif" font-size="14.00">chol &lt;= 224.5</text>
<text text-anchor="middle" x="649" y="-156.8" font-family="Helvetica,sans-Serif" font-size="14.00">0.49</text>
<text text-anchor="middle" x="649" y="-141.8" font-family="Helvetica,sans-Serif" font-size="14.00">6.1%</text>
<text text-anchor="middle" x="649" y="-126.8" font-family="Helvetica,sans-Serif" font-size="14.00">[0.44, 0.56]</text>
<text text-anchor="middle" x="649" y="-111.8" font-family="Helvetica,sans-Serif" font-size="14.00">1</text>
</g>
<!-- 17&#45;&gt;18 -->
<g id="edge18" class="edge">
<title>17&#45;&gt;18</title>
<path fill="none" stroke="black" d="M665.98,-222.91C664.12,-214.56 662.15,-205.67 660.23,-197.02"/>
<polygon fill="black" stroke="black" points="663.59,-196.02 658,-187.02 656.76,-197.54 663.59,-196.02"/>
</g>
<!-- 21 -->
<g id="node22" class="node">
<title>21</title>
<path fill="#399de5" stroke="black" d="M773.5,-179.5C773.5,-179.5 728.5,-179.5 728.5,-179.5 722.5,-179.5 716.5,-173.5 716.5,-167.5 716.5,-167.5 716.5,-123.5 716.5,-123.5 716.5,-117.5 722.5,-111.5 728.5,-111.5 728.5,-111.5 773.5,-111.5 773.5,-111.5 779.5,-111.5 785.5,-117.5 785.5,-123.5 785.5,-123.5 785.5,-167.5 785.5,-167.5 785.5,-173.5 779.5,-179.5 773.5,-179.5"/>
<text text-anchor="middle" x="751" y="-164.3" font-family="Helvetica,sans-Serif" font-size="14.00">0.0</text>
<text text-anchor="middle" x="751" y="-149.3" font-family="Helvetica,sans-Serif" font-size="14.00">1.4%</text>
<text text-anchor="middle" x="751" y="-134.3" font-family="Helvetica,sans-Serif" font-size="14.00">[0.0, 1.0]</text>
<text text-anchor="middle" x="751" y="-119.3" font-family="Helvetica,sans-Serif" font-size="14.00">1</text>
</g>
<!-- 17&#45;&gt;21 -->
<g id="edge21" class="edge">
<title>17&#45;&gt;21</title>
<path fill="none" stroke="black" d="M701.37,-222.91C708.68,-211.65 716.63,-199.42 723.97,-188.11"/>
<polygon fill="black" stroke="black" points="726.94,-189.96 729.46,-179.67 721.07,-186.15 726.94,-189.96"/>
</g>
<!-- 19 -->
<g id="node20" class="node">
<title>19</title>
<path fill="#f8e0ce" stroke="black" d="M631,-68C631,-68 571,-68 571,-68 565,-68 559,-62 559,-56 559,-56 559,-12 559,-12 559,-6 565,0 571,0 571,0 631,0 631,0 637,0 643,-6 643,-12 643,-12 643,-56 643,-56 643,-62 637,-68 631,-68"/>
<text text-anchor="middle" x="601" y="-52.8" font-family="Helvetica,sans-Serif" font-size="14.00">0.49</text>
<text text-anchor="middle" x="601" y="-37.8" font-family="Helvetica,sans-Serif" font-size="14.00">4.7%</text>
<text text-anchor="middle" x="601" y="-22.8" font-family="Helvetica,sans-Serif" font-size="14.00">[0.57, 0.43]</text>
<text text-anchor="middle" x="601" y="-7.8" font-family="Helvetica,sans-Serif" font-size="14.00">1</text>
</g>
<!-- 18&#45;&gt;19 -->
<g id="edge19" class="edge">
<title>18&#45;&gt;19</title>
<path fill="none" stroke="black" d="M631.13,-103.73C627.41,-95.24 623.48,-86.28 619.73,-77.73"/>
<polygon fill="black" stroke="black" points="622.82,-76.05 615.6,-68.3 616.41,-78.86 622.82,-76.05"/>
</g>
<!-- 20 -->
<g id="node21" class="node">
<title>20</title>
<path fill="#399de5" stroke="black" d="M718.5,-68C718.5,-68 673.5,-68 673.5,-68 667.5,-68 661.5,-62 661.5,-56 661.5,-56 661.5,-12 661.5,-12 661.5,-6 667.5,0 673.5,0 673.5,0 718.5,0 718.5,0 724.5,0 730.5,-6 730.5,-12 730.5,-12 730.5,-56 730.5,-56 730.5,-62 724.5,-68 718.5,-68"/>
<text text-anchor="middle" x="696" y="-52.8" font-family="Helvetica,sans-Serif" font-size="14.00">0.0</text>
<text text-anchor="middle" x="696" y="-37.8" font-family="Helvetica,sans-Serif" font-size="14.00">1.4%</text>
<text text-anchor="middle" x="696" y="-22.8" font-family="Helvetica,sans-Serif" font-size="14.00">[0.0, 1.0]</text>
<text text-anchor="middle" x="696" y="-7.8" font-family="Helvetica,sans-Serif" font-size="14.00">1</text>
</g>
<!-- 18&#45;&gt;20 -->
<g id="edge20" class="edge">
<title>18&#45;&gt;20</title>
<path fill="none" stroke="black" d="M666.5,-103.73C670.14,-95.24 673.99,-86.28 677.66,-77.73"/>
<polygon fill="black" stroke="black" points="680.98,-78.87 681.71,-68.3 674.55,-76.11 680.98,-78.87"/>
</g>
<!-- 23 -->
<g id="node24" class="node">
<title>23</title>
<path fill="#399de5" stroke="black" d="M860.5,-179.5C860.5,-179.5 815.5,-179.5 815.5,-179.5 809.5,-179.5 803.5,-173.5 803.5,-167.5 803.5,-167.5 803.5,-123.5 803.5,-123.5 803.5,-117.5 809.5,-111.5 815.5,-111.5 815.5,-111.5 860.5,-111.5 860.5,-111.5 866.5,-111.5 872.5,-117.5 872.5,-123.5 872.5,-123.5 872.5,-167.5 872.5,-167.5 872.5,-173.5 866.5,-179.5 860.5,-179.5"/>
<text text-anchor="middle" x="838" y="-164.3" font-family="Helvetica,sans-Serif" font-size="14.00">0.0</text>
<text text-anchor="middle" x="838" y="-149.3" font-family="Helvetica,sans-Serif" font-size="14.00">2.7%</text>
<text text-anchor="middle" x="838" y="-134.3" font-family="Helvetica,sans-Serif" font-size="14.00">[0.0, 1.0]</text>
<text text-anchor="middle" x="838" y="-119.3" font-family="Helvetica,sans-Serif" font-size="14.00">1</text>
</g>
<!-- 22&#45;&gt;23 -->
<g id="edge23" class="edge">
<title>22&#45;&gt;23</title>
<path fill="none" stroke="black" d="M838,-222.91C838,-212.2 838,-200.62 838,-189.78"/>
<polygon fill="black" stroke="black" points="841.5,-189.67 838,-179.67 834.5,-189.67 841.5,-189.67"/>
</g>
<!-- 24 -->
<g id="node25" class="node">
<title>24</title>
<path fill="#e58139" stroke="black" d="M947.5,-179.5C947.5,-179.5 902.5,-179.5 902.5,-179.5 896.5,-179.5 890.5,-173.5 890.5,-167.5 890.5,-167.5 890.5,-123.5 890.5,-123.5 890.5,-117.5 896.5,-111.5 902.5,-111.5 902.5,-111.5 947.5,-111.5 947.5,-111.5 953.5,-111.5 959.5,-117.5 959.5,-123.5 959.5,-123.5 959.5,-167.5 959.5,-167.5 959.5,-173.5 953.5,-179.5 947.5,-179.5"/>
<text text-anchor="middle" x="925" y="-164.3" font-family="Helvetica,sans-Serif" font-size="14.00">0.0</text>
<text text-anchor="middle" x="925" y="-149.3" font-family="Helvetica,sans-Serif" font-size="14.00">7.4%</text>
<text text-anchor="middle" x="925" y="-134.3" font-family="Helvetica,sans-Serif" font-size="14.00">[1.0, 0.0]</text>
<text text-anchor="middle" x="925" y="-119.3" font-family="Helvetica,sans-Serif" font-size="14.00">1</text>
</g>
<!-- 22&#45;&gt;24 -->
<g id="edge24" class="edge">
<title>22&#45;&gt;24</title>
<path fill="none" stroke="black" d="M868.18,-222.91C876.64,-211.54 885.83,-199.18 894.31,-187.77"/>
<polygon fill="black" stroke="black" points="897.18,-189.78 900.34,-179.67 891.56,-185.6 897.18,-189.78"/>
</g>
<!-- \n -->
<g id="node26" class="node">
<title>\n</title>
<path fill="black" stroke="black" d="M599,-639.5C599,-639.5 569,-639.5 569,-639.5 563,-639.5 557,-633.5 557,-627.5 557,-627.5 557,-615.5 557,-615.5 557,-609.5 563,-603.5 569,-603.5 569,-603.5 599,-603.5 599,-603.5 605,-603.5 611,-609.5 611,-615.5 611,-615.5 611,-627.5 611,-627.5 611,-633.5 605,-639.5 599,-639.5"/>
</g>
</g>
</svg>
